<svg xmlns="http://www.w3.org/2000/svg" xml:space="preserve" style="enable-background:new 0 0 500 121.1" viewBox="0 0 500 121.1"><path d="M0 5.9V2.4h15.1l24.7 71.7c.3 1 .7 1.3 1.7 1.3s1.3-.3 1.7-1.3L67.8 2.4h15.1v3.4L54.1 87.7H28.9L0 5.9zM175.1 60.7c-2.5 12.9-13.8 29.5-41.1 29.5-28.5 0-43.8-17.2-43.8-45s16.9-45 43.5-45c26.9 0 41.1 17.2 41.1 40.9v8.2H105c1 19.2 12.9 28.2 28.9 28.2 16.1 0 23.1-7 25.5-16.7l15.7-.1zM105.4 37h54.4c-.7-15.7-10.4-24.1-26.2-24.1-14.3 0-25.7 8-28.2 24.1zM206.9 90.3c1.7 10.6 10.8 17.7 26.7 17.7 18 0 28.4-10.5 28.4-28.6v-5.9c0-.7-.3-1-1-1s-1 .2-1.5.8c-6.6 8.5-16.4 11.8-28.2 11.8-21.7 0-41.6-14.7-41.6-42.6 0-27.8 19.9-42.6 41.6-42.6 11.8 0 21.2 3.6 28.4 11.9 1.2 1.5 1.8 1.8 2.7 1.8 1 0 1.2-.5 1.5-1.5l3.2-9.8h10v76.1c0 27-16.3 42.6-43.5 42.6-26.7 0-41.4-12.8-43.1-30.8l16.4.1zM233.8 72c15.8 0 29-10.6 29-29.5S249.5 13 233.8 13s-29 10.6-29 29.5S218 72 233.8 72zM323.3 38l31.5-1.3v-4.6c0-12.1-6.3-19.2-21.6-19.2s-21.4 7-21.7 15.9h-15.4C296.8 12.6 308.4.2 333.3.2c24.9 0 36 12.4 36 32.7v54.8H355v-9c0-.7-.3-1-1-1s-1 .2-1.7 1c-6.1 8.1-15.3 11.5-26.5 11.5-21.6 0-34-11.1-34-27.5 0-14.8 9.9-23.8 31.5-24.7zm4.1 39.4c16.6 0 27.4-9.3 27.4-27.3v-1l-31.5 1.3c-11.6.5-16.6 4.9-16.6 12.3 0 9 7.5 14.7 20.7 14.7zM399 11.5h17v40.2h-17v9h44.1v-9H426V11.5h17.1v-9H399v9zM500 2.4h-47v9h18.5v49.3h10V11.5H500V2.4z"/></svg>