<svg xmlns="http://www.w3.org/2000/svg" xml:space="preserve" id="logo" x="0" y="0" style="enable-background:new 0 0 144 36" version="1.1" viewBox="0 0 144 36"><style>.st0{fill:#fff}</style><path d="M.5 1.9v-1h4.3l7 20.7c.1.3.2.4.5.4s.4-.1.5-.4l7-20.7h4.3v1l-8.2 23.6H8.7L.5 1.9zM50.4 17.7c-.7 3.7-3.9 8.5-11.7 8.5-8.1 0-12.5-5-12.5-13S31 .2 38.6.2c7.7 0 11.7 5 11.7 11.8v2.4H30.4c.3 5.5 3.7 8.1 8.3 8.1 4.6 0 6.6-2 7.3-4.8h4.4zm-19.8-6.9h15.5c-.2-4.5-3-7-7.5-7-4.1.1-7.3 2.4-8 7zM59.5 26.3c.5 3.1 3.1 5.1 7.6 5.1 5.1 0 8.1-3 8.1-8.3v-1.7c0-.2-.1-.3-.3-.3-.2 0-.3 0-.4.2-1.9 2.5-4.7 3.4-8 3.4-6.2 0-11.9-4.3-11.9-12.3S60.3.1 66.5.1c3.4 0 6.1 1 8.1 3.5.3.4.5.5.8.5.3 0 .3-.1.4-.4l.9-2.8h2.8v22c0 7.8-4.6 12.3-12.4 12.3-7.6 0-11.8-3.7-12.3-8.9h4.7zm7.7-5.3c4.5 0 8.3-3.1 8.3-8.5S71.7 4 67.2 4c-4.5 0-8.3 3.1-8.3 8.5s3.8 8.5 8.3 8.5zM92.7 11.1l9-.4V9.4c0-3.5-1.8-5.5-6.1-5.5-4.4 0-6.1 2-6.2 4.6H85C85.2 3.8 88.5.2 95.6.2s10.3 3.6 10.3 9.5v15.8h-4.1v-2.6c0-.2-.1-.3-.3-.3-.2 0-.3 0-.5.3-1.7 2.3-4.4 3.3-7.6 3.3-6.1 0-9.7-3.2-9.7-7.9 0-4.3 2.8-6.9 9-7.2zm1.2 11.4c4.7 0 7.8-2.7 7.8-7.9v-.3l-9 .4c-3.3.1-4.7 1.4-4.7 3.5-.1 2.7 2.1 4.3 5.9 4.3zM114.2 3.5h4.9v11.6h-4.9v2.6h12.6v-2.6H122V3.5h4.9V.9h-12.6v2.6zM143.1.9h-13.4v2.6h5.3v14.2h2.8V3.5h5.3V.9z" class="st0"/></svg>